<?xml version="1.0" encoding="UTF-8"?>
<svg version="1.1" xmlns="http://www.w3.org/2000/svg" width="205" height="250">
<path d="M0 0 C8.17294659 4.13291049 17.50217883 10.38760457 21.625 18.8125 C21.810625 19.493125 21.99625 20.17375 22.1875 20.875 C22.78175781 20.90078125 23.37601563 20.9265625 23.98828125 20.953125 C34.15394597 21.64875369 42.91991101 24.94867515 51.1875 30.875 C52.198125 31.596875 53.20875 32.31875 54.25 33.0625 C62.03832019 39.85611625 68.1174291 50.77138231 70.1875 60.875 C70.28177932 62.72764495 70.322332 64.58332068 70.32794189 66.43835449 C70.33365204 67.57083618 70.33936218 68.70331787 70.34524536 69.87011719 C70.34692215 71.72781738 70.34692215 71.72781738 70.34863281 73.62304688 C70.35359772 74.93084106 70.35856262 76.23863525 70.36367798 77.58605957 C70.37678406 81.17329039 70.38324426 84.76050251 70.38768864 88.34775352 C70.39062424 90.59317143 70.39473012 92.83858428 70.39919281 95.08399963 C70.41286741 102.12128662 70.42253239 109.15856199 70.4263947 116.19586134 C70.43086563 124.29616748 70.44836858 132.39630405 70.4773953 140.49655867 C70.49909174 146.77108839 70.50910333 153.04557071 70.51043582 159.3201375 C70.51147882 163.06077635 70.51727719 166.8012558 70.53525543 170.54185486 C70.55187287 174.06808203 70.55382631 177.59403239 70.54511642 181.12028503 C70.54399266 183.01209547 70.55760684 184.90389729 70.5718689 186.7956543 C70.4938241 202.98211634 65.99345288 214.54211256 54.9375 226.2890625 C48.50822211 232.33477552 39.3703516 238.875 30.1875 238.875 C30.1875 239.535 30.1875 240.195 30.1875 240.875 C23.2575 240.875 16.3275 240.875 9.1875 240.875 C9.1875 240.215 9.1875 239.555 9.1875 238.875 C7.64449219 238.71451172 7.64449219 238.71451172 6.0703125 238.55078125 C2.19203665 237.87578958 -0.4551458 236.85604333 -3.9375 235.0625 C-4.81269287 234.61269775 -4.81269287 234.61269775 -5.70556641 234.15380859 C-14.04997006 229.79862484 -22.16726441 225.01603114 -30.31591797 220.30908203 C-33.7769203 218.32101948 -37.26299625 216.37943457 -40.75 214.4375 C-49.90981008 209.3135407 -58.92044521 203.9368696 -67.94384766 198.57763672 C-71.73731995 196.32608984 -75.53464602 194.08110214 -79.33276367 191.83740234 C-81.18377025 190.74366251 -83.03420061 189.64894687 -84.8840332 188.55322266 C-89.12891781 186.04048351 -93.37999112 183.54105594 -97.65625 181.08203125 C-112.6010824 172.47195169 -125.21118428 164.06715715 -130.8125 146.875 C-131.16699219 145.98425781 -131.52148438 145.09351563 -131.88671875 144.17578125 C-133.10213146 139.84234775 -133.23685975 135.79544324 -133.25 131.3125 C-133.25314209 130.43078125 -133.25628418 129.5490625 -133.25952148 128.640625 C-133.11678034 120.77910283 -131.1603488 114.98780663 -127.8125 107.875 C-126.84974531 105.32851385 -126.62058325 104.38324184 -127.58984375 101.81640625 C-127.97269531 101.03136719 -128.35554687 100.24632813 -128.75 99.4375 C-132.47775701 89.79988431 -132.83500318 76.04696198 -129.3125 66.25 C-128.1953125 64.0625 -128.1953125 64.0625 -126.8125 61.875 C-125.97332031 60.51375 -125.97332031 60.51375 -125.1171875 59.125 C-117.81163017 48.24060689 -107.70593112 41.89026107 -96.4375 35.5625 C-95.29700195 34.91297363 -94.15650391 34.26344727 -92.98144531 33.59423828 C-85.42447284 29.29657678 -77.81124752 25.10227708 -70.17285156 20.95141602 C-62.83719369 16.94397329 -55.65284753 12.69265153 -48.49511719 8.37646484 C-33.47002038 -0.62785699 -17.4665828 -7.00459361 0 0 Z M-48.5625 10.75 C-50.75831045 12.09766526 -52.9549465 13.44398611 -55.15234375 14.7890625 C-56.25819824 15.47000977 -57.36405273 16.15095703 -58.50341797 16.85253906 C-63.67125195 20.0110411 -68.89235233 23.07541718 -74.125 26.125 C-75.10960205 26.70048584 -76.0942041 27.27597168 -77.10864258 27.86889648 C-84.36566824 32.08888066 -91.69695443 36.16297851 -99.13208008 40.06152344 C-110.57003413 46.18702201 -122.18707856 54.99873567 -126.42578125 67.71484375 C-129.42965296 78.68817102 -128.53059282 90.22974614 -124.8125 100.875 C-121.90539676 99.58161103 -120.83083398 98.89983958 -118.875 96.25 C-114.6677775 91.06521698 -108.51642209 88.15372758 -102.8125 84.875 C-101.92336914 84.36324219 -101.03423828 83.85148437 -100.11816406 83.32421875 C-95.87676924 80.8845404 -91.63529404 78.44502741 -87.39038086 76.01147461 C-78.91073622 71.13329297 -70.53350539 66.10290325 -62.1875 61 C-54.47714998 56.28656132 -46.76464549 51.61009252 -38.83569336 47.27075195 C-34.7623317 45.02395665 -30.7839086 42.65071412 -26.8203125 40.21484375 C1.57059606 22.77775685 1.57059606 22.77775685 19.1875 20.875 C14.82594907 11.43895231 7.14672827 5.95893895 -2.1484375 1.83984375 C-19.11355793 -4.21912783 -34.1338617 1.68422872 -48.5625 10.75 Z " fill="#161616" transform="translate(132.8125,7.125)"/>
<!-- <path d="M0 0 C3.68623011 1.61272567 4.75355 2.630325 7 6 C7.48204074 9.04358279 7.47269576 11.9549599 7 15 C5 17.5625 5 17.5625 3 19 C3.78375 19.433125 4.5675 19.86625 5.375 20.3125 C8 22 8 22 10 25 C10.46593055 30.0320499 10.05875044 32.95807977 7 37 C4.09775503 40.26502559 2.16095748 41.80954273 -2.3046875 42.203125 C-11.30683457 42.36729789 -11.30683457 42.36729789 -15 39 C-19 33.2970297 -19 33.2970297 -19 30 C-17.02 29.67 -15.04 29.34 -13 29 C-12.67 29.969375 -12.34 30.93875 -12 31.9375 C-10.39153919 35.05982144 -10.39153919 35.05982144 -8.16015625 35.69140625 C-5.14770031 36.13457947 -2.55902607 36.10033801 0.4375 35.5625 C2.71744145 33.28255855 2.86890349 31.0589546 3.0859375 27.90625 C3.12236592 25.92790973 3.12236592 25.92790973 2.0625 24.0625 C-1.19202462 22.38592671 -4.3635181 22.29807229 -8 22 C-8 20.35 -8 18.7 -8 17 C-5.03 16.34 -2.06 15.68 1 15 C1 12.69 1 10.38 1 8 C-1.91708924 6.01637931 -3.12380904 6.0123809 -6.75 6.375 C-8.35875 6.684375 -8.35875 6.684375 -10 7 C-10.66 8.65 -11.32 10.3 -12 12 C-13.65 12 -15.3 12 -17 12 C-17.67578125 10.23046875 -17.67578125 10.23046875 -18 8 C-16.85546875 6.11328125 -16.85546875 6.11328125 -15.1875 4.3125 C-14.37345703 3.40951172 -14.37345703 3.40951172 -13.54296875 2.48828125 C-9.79203836 -1.12970477 -4.90306497 -0.44011764 0 0 Z " fill="#F1F1F1" transform="translate(99,82)"/> -->
<path d="M8 8C8 6.97631 8.39052 5.95262 9.17157 5.17157C10.7337 3.60947 13.2663 3.60947 14.8284 5.17157C16.3905 6.73366 16.3905 9.26632 14.8284 10.8284L9.17157 16.4853C8.42143 17.2354 8 18.2528 8 19.3137L8 20L16 20" fill="#F1F1F1" transform="translate(99,82)"/>
<path d="M0 0 C1.3602832 -0.01740234 1.3602832 -0.01740234 2.74804688 -0.03515625 C8.41065135 -0.01051838 12.40231739 0.76416457 17.4375 3.375 C17.4375 4.035 17.4375 4.695 17.4375 5.375 C16.61572266 5.1584375 16.61572266 5.1584375 15.77734375 4.9375 C-0.71490982 1.07589916 -13.94559072 3.55923442 -28.28637695 12.34863281 C-29.28499756 12.97608398 -30.28361816 13.60353516 -31.3125 14.25 C-33.50831045 15.59766526 -35.7049465 16.94398611 -37.90234375 18.2890625 C-39.00819824 18.97000977 -40.11405273 19.65095703 -41.25341797 20.35253906 C-46.42125195 23.5110411 -51.64235233 26.57541718 -56.875 29.625 C-57.85960205 30.20048584 -58.8442041 30.77597168 -59.85864258 31.36889648 C-67.11566824 35.58888066 -74.44695443 39.66297851 -81.88208008 43.56152344 C-89.83376044 47.81997792 -96.8214699 52.83649505 -102.2734375 60.08984375 C-103.5625 61.375 -103.5625 61.375 -106.5625 61.375 C-98.30485685 44.07148413 -73.79345631 35.12991293 -57.875 26.17578125 C-55.95826441 25.09647656 -54.04159792 24.01704914 -52.125 22.9375 C-51.17753906 22.40495605 -50.23007813 21.87241211 -49.25390625 21.32373047 C-44.30081996 18.52879864 -39.38122513 15.68837195 -34.5 12.76953125 C-33.02164673 11.88575806 -33.02164673 11.88575806 -31.51342773 10.98413086 C-29.64465855 9.86217434 -27.77933287 8.73445349 -25.91821289 7.59985352 C-17.04534791 2.26635912 -10.42025061 -0.13387902 0 0 Z " fill="#131313" transform="translate(115.5625,4.625)"/>
<path d="M0 0 C1.8975 -0.061875 3.795 -0.12375 5.75 -0.1875 C7.35101563 -0.23970703 7.35101563 -0.23970703 8.984375 -0.29296875 C12.36427437 0.03538935 13.69870213 0.52336515 16 3 C16.76373842 6.04933797 16.55089123 8.91723494 16 12 C14.3125 14.5625 14.3125 14.5625 12 16 C9.3125 16.3125 9.3125 16.3125 7 16 C6.67 15.67 6.34 15.34 6 15 C5.67 17.31 5.34 19.62 5 22 C3.35 22 1.7 22 0 22 C0 14.74 0 7.48 0 0 Z " fill="#EAEAEA" transform="translate(68,136)"/>
<path d="M0 0 C1.65 0 3.3 0 5 0 C5 3.96 5 7.92 5 12 C8.96 12 12.92 12 17 12 C17 13.65 17 15.3 17 17 C13.04 17 9.08 17 5 17 C5 20.96 5 24.92 5 29 C3.35 29 1.7 29 0 29 C0 25.04 0 21.08 0 17 C-3.96 17 -7.92 17 -12 17 C-12 15.35 -12 13.7 -12 12 C-8.04 12 -4.08 12 0 12 C0 8.04 0 4.08 0 0 Z " fill="#FCFCFC" transform="translate(126,89)"/>
<path d="M0 0 C5.28 0 10.56 0 16 0 C16 1.32 16 2.64 16 4 C12.04 4 8.08 4 4 4 C4 5.65 4 7.3 4 9 C7.96 9 11.92 9 16 9 C16 10.32 16 11.64 16 13 C12.04 13 8.08 13 4 13 C4 14.65 4 16.3 4 18 C8.29 18 12.58 18 17 18 C17 19.32 17 20.64 17 22 C11.39 22 5.78 22 0 22 C0 14.74 0 7.48 0 0 Z " fill="#FBFBFB" transform="translate(31,130)"/>
<path d="M0 0 C1.90625 0.4921875 1.90625 0.4921875 4.40625 2.7421875 C5.90625 5.4921875 5.90625 5.4921875 5.90625 9.4921875 C2.27625 9.4921875 -1.35375 9.4921875 -5.09375 9.4921875 C-4.10375 10.9771875 -4.10375 10.9771875 -3.09375 12.4921875 C0.48982241 12.74234623 0.48982241 12.74234623 3.90625 12.4921875 C3.90625 13.4821875 3.90625 14.4721875 3.90625 15.4921875 C2.33706508 17.06137242 0.76539841 16.77477693 -1.40625 16.8671875 C-4.98950584 16.82154093 -5.79087073 16.74335568 -8.65625 14.3671875 C-10.34794769 10.98379212 -10.71570931 9.22394336 -10.09375 5.4921875 C-7.60113756 0.71468032 -5.15542385 -0.32702315 0 0 Z " fill="#D9D9D9" transform="translate(134.09375,135.5078125)"/>
<path d="M0 0 C1.90625 0.4921875 1.90625 0.4921875 4.40625 2.7421875 C5.90625 5.4921875 5.90625 5.4921875 5.90625 9.4921875 C2.27625 9.4921875 -1.35375 9.4921875 -5.09375 9.4921875 C-4.10375 10.9771875 -4.10375 10.9771875 -3.09375 12.4921875 C0.48982241 12.74234623 0.48982241 12.74234623 3.90625 12.4921875 C3.90625 13.4821875 3.90625 14.4721875 3.90625 15.4921875 C2.33706508 17.06137242 0.76539841 16.77477693 -1.40625 16.8671875 C-4.98950584 16.82154093 -5.79087073 16.74335568 -8.65625 14.3671875 C-10.34794769 10.98379212 -10.71570931 9.22394336 -10.09375 5.4921875 C-7.60113756 0.71468032 -5.15542385 -0.32702315 0 0 Z " fill="#D9D9D9" transform="translate(96.09375,135.5078125)"/>
<path d="M0 0 C2.4375 1.6875 2.4375 1.6875 4 4 C4 5.65 4 7.3 4 9 C0.7 9 -2.6 9 -6 9 C-5.67 9.99 -5.34 10.98 -5 12 C-2.36 12 0.28 12 3 12 C3 12.99 3 13.98 3 15 C-0.20841035 16.60420518 -3.5193987 16.47462745 -7 16 C-9.5 14.5 -9.5 14.5 -11 12 C-11.79669284 7.95014472 -11.64099302 5.02558884 -9.4375 1.5 C-6.05111671 -0.58392818 -3.90614682 -0.55802097 0 0 Z " fill="#DFDFDF" transform="translate(189,136)"/>
<path d="M0 0 C1.918125 -0.0825 3.83625 -0.165 5.8125 -0.25 C7.43091797 -0.31960937 7.43091797 -0.31960937 9.08203125 -0.390625 C12 0 12 0 13.875 1.625 C15.31383902 4.66254904 15.29665529 6.90257109 15.1875 10.25 C15.16042969 11.32765625 15.13335937 12.4053125 15.10546875 13.515625 C15.07066406 14.33546875 15.03585938 15.1553125 15 16 C13.35 16 11.7 16 10 16 C9.67 12.04 9.34 8.08 9 4 C7.35 4 5.7 4 4 4 C4 7.96 4 11.92 4 16 C2.68 16 1.36 16 0 16 C0 10.72 0 5.44 0 0 Z " fill="#E8E8E8" transform="translate(143,136)"/>
<path d="M0 0 C1.98 0 3.96 0 6 0 C6.33 0.66 6.66 1.32 7 2 C7.66 2 8.32 2 9 2 C9.33 1.34 9.66 0.68 10 0 C11.98 0 13.96 0 16 0 C15.319375 0.9075 14.63875 1.815 13.9375 2.75 C11.80002584 5.6739974 11.80002584 5.6739974 12.0625 8.125 C13.14654163 10.29308326 14.52776148 12.07968888 16 14 C16 14.66 16 15.32 16 16 C14.35 16 12.7 16 11 16 C10.34 14.68 9.68 13.36 9 12 C8.34 12 7.68 12 7 12 C6.34 13.32 5.68 14.64 5 16 C3.35 16 1.7 16 0 16 C0.28875 15.443125 0.5775 14.88625 0.875 14.3125 C1.24625 13.549375 1.6175 12.78625 2 12 C2.45375 11.236875 2.9075 10.47375 3.375 9.6875 C4.11459975 6.50722107 3.69473742 5.92901324 2.125 3.1875 C1.42375 2.135625 0.7225 1.08375 0 0 Z " fill="#EEEEEE" transform="translate(50,136)"/>
<path d="M0 0 C2 2.5 2 2.5 3 5 C1.35 5.33 -0.3 5.66 -2 6 C-2.33 5.34 -2.66 4.68 -3 4 C-3.99 4 -4.98 4 -6 4 C-6 6.64 -6 9.28 -6 12 C-5.01 12 -4.02 12 -3 12 C-2.67 11.34 -2.34 10.68 -2 10 C-0.35 10.33 1.3 10.66 3 11 C1.125 14.875 1.125 14.875 0 16 C-7.03846154 16.57692308 -7.03846154 16.57692308 -10.5 14.5 C-12.62153384 10.96411027 -12.791013 8.02098277 -12 4 C-9.0095109 -0.9841485 -5.30305824 -0.75757975 0 0 Z " fill="#E8E8E8" transform="translate(173,136)"/>
<path d="M0 0 C3.3 0 6.6 0 10 0 C10 0.99 10 1.98 10 3 C8.35 3.66 6.7 4.32 5 5 C4.67 8.63 4.34 12.26 4 16 C2.68 16 1.36 16 0 16 C0 10.72 0 5.44 0 0 Z " fill="#F9F9F9" transform="translate(105,136)"/>
<path d="M0 0 C1.65 0 3.3 0 5 0 C5 5.28 5 10.56 5 16 C3.35 16 1.7 16 0 16 C0 10.72 0 5.44 0 0 Z " fill="#E3E3E3" transform="translate(117,136)"/>
<path d="M0 0 C2.97 0.495 2.97 0.495 6 1 C5.67 1.99 5.34 2.98 5 4 C4.77674186 6.05893621 4.59294241 8.12233653 4.4375 10.1875 C4.35371094 11.27417969 4.26992187 12.36085937 4.18359375 13.48046875 C4.12300781 14.31191406 4.06242188 15.14335937 4 16 C2.68 16 1.36 16 0 16 C0 10.72 0 5.44 0 0 Z " fill="#FBFBFB" transform="translate(143,136)"/>
<path d="M0 0 C3.53571429 0.53571429 3.53571429 0.53571429 5 2 C4.71269945 4.33944736 4.38063221 6.6739143 4 9 C2.125 9.625 2.125 9.625 0 10 C-2 8 -2 8 -2.25 5 C-2 2 -2 2 0 0 Z " fill="#1E1E1E" transform="translate(75,139)"/>
</svg>
